<mxfile host="65bd71144e">
    <diagram id="_--qhj3VhHqOcJ7aeL1O" name="Homepage">
        <mxGraphModel dx="880" dy="489" grid="1" gridSize="10" guides="1" tooltips="1" connect="1" arrows="1" fold="1" page="1" pageScale="1" pageWidth="827" pageHeight="1169" math="0" shadow="0">
            <root>
                <mxCell id="0"/>
                <mxCell id="1" parent="0"/>
                <mxCell id="2" value="Select" style="rounded=1;whiteSpace=wrap;html=1;" parent="1" vertex="1">
                    <mxGeometry x="206" y="545" width="416" height="80" as="geometry"/>
                </mxCell>
                <mxCell id="3" value="Homepage" style="text;html=1;strokeColor=none;fillColor=none;align=center;verticalAlign=middle;whiteSpace=wrap;rounded=0;" parent="1" vertex="1">
                    <mxGeometry x="384" y="310" width="60" height="30" as="geometry"/>
                </mxCell>
                <mxCell id="4" value="Button" style="rounded=1;whiteSpace=wrap;html=1;" parent="1" vertex="1">
                    <mxGeometry x="354" y="750" width="120" height="60" as="geometry"/>
                </mxCell>
            </root>
        </mxGraphModel>
    </diagram>
    <diagram id="CENfyKUQU2kOJU8b8wFO" name="company-dates">
        <mxGraphModel dx="880" dy="489" grid="1" gridSize="10" guides="1" tooltips="1" connect="1" arrows="1" fold="1" page="1" pageScale="1" pageWidth="827" pageHeight="1169" math="0" shadow="0">
            <root>
                <mxCell id="0"/>
                <mxCell id="1" parent="0"/>
                <mxCell id="9wn59i09z6GpwNV957bd-1" value="Data" style="rounded=0;whiteSpace=wrap;html=1;" parent="1" vertex="1">
                    <mxGeometry x="160" y="210" width="120" height="60" as="geometry"/>
                </mxCell>
                <mxCell id="9wn59i09z6GpwNV957bd-2" value="Data" style="rounded=0;whiteSpace=wrap;html=1;" parent="1" vertex="1">
                    <mxGeometry x="540" y="210" width="120" height="60" as="geometry"/>
                </mxCell>
                <mxCell id="9wn59i09z6GpwNV957bd-3" value="Data" style="rounded=0;whiteSpace=wrap;html=1;" parent="1" vertex="1">
                    <mxGeometry x="160" y="350" width="120" height="60" as="geometry"/>
                </mxCell>
                <mxCell id="9wn59i09z6GpwNV957bd-4" value="&#xa;&lt;span style=&quot;color: rgb(240, 240, 240); font-family: Helvetica; font-size: 12px; font-style: normal; font-variant-ligatures: normal; font-variant-caps: normal; font-weight: 400; letter-spacing: normal; orphans: 2; text-align: center; text-indent: 0px; text-transform: none; widows: 2; word-spacing: 0px; -webkit-text-stroke-width: 0px; background-color: rgb(42, 37, 47); text-decoration-thickness: initial; text-decoration-style: initial; text-decoration-color: initial; float: none; display: inline !important;&quot;&gt;Data&lt;/span&gt;&#xa;&#xa;" style="rounded=0;whiteSpace=wrap;html=1;" parent="1" vertex="1">
                    <mxGeometry x="540" y="350" width="120" height="60" as="geometry"/>
                </mxCell>
                <mxCell id="9wn59i09z6GpwNV957bd-5" value="&#xa;&lt;span style=&quot;color: rgb(240, 240, 240); font-family: Helvetica; font-size: 12px; font-style: normal; font-variant-ligatures: normal; font-variant-caps: normal; font-weight: 400; letter-spacing: normal; orphans: 2; text-align: center; text-indent: 0px; text-transform: none; widows: 2; word-spacing: 0px; -webkit-text-stroke-width: 0px; background-color: rgb(42, 37, 47); text-decoration-thickness: initial; text-decoration-style: initial; text-decoration-color: initial; float: none; display: inline !important;&quot;&gt;Data&lt;/span&gt;&#xa;&#xa;" style="rounded=0;whiteSpace=wrap;html=1;" parent="1" vertex="1">
                    <mxGeometry x="160" y="490" width="120" height="60" as="geometry"/>
                </mxCell>
                <mxCell id="9wn59i09z6GpwNV957bd-6" value="Data" style="rounded=0;whiteSpace=wrap;html=1;" parent="1" vertex="1">
                    <mxGeometry x="540" y="490" width="120" height="60" as="geometry"/>
                </mxCell>
                <mxCell id="9wn59i09z6GpwNV957bd-7" value="Run" style="rounded=1;whiteSpace=wrap;html=1;" parent="1" vertex="1">
                    <mxGeometry x="354" y="710" width="120" height="60" as="geometry"/>
                </mxCell>
                <mxCell id="0ERaq7TYdiwjlkEDvZym-1" value="contractCodes" style="text;html=1;strokeColor=none;fillColor=none;align=center;verticalAlign=middle;whiteSpace=wrap;rounded=0;" parent="1" vertex="1">
                    <mxGeometry x="384" y="900" width="60" height="30" as="geometry"/>
                </mxCell>
                <mxCell id="0ERaq7TYdiwjlkEDvZym-2" value="New Query" style="rounded=1;whiteSpace=wrap;html=1;" parent="1" vertex="1">
                    <mxGeometry x="354" y="1220" width="120" height="60" as="geometry"/>
                </mxCell>
            </root>
        </mxGraphModel>
    </diagram>
</mxfile>